<svg xmlns="http://www.w3.org/2000/svg" viewBox="0 0 23 23"><path d="M1 1h7v7h-7zM10 1h2v1h2v1h-1v1h-3v1h1v1h-1v3h-1v-6h2v-1h-1zM15 1h7v7h-7zM2 2v5h5v-5zM16 2v5h5v-5zM3 3h3v3h-3zM17 3h3v3h-3zM13 4h1v7h-1v-2h-1v-1h1v-2h-1v-1h1zM11 6h1v2h-1zM1 9h1v1h-1zM3 9h5v1h-2v1h-1v-1h-2zM15 9h5v1h-2v1h-2v-1h-1zM10 10h1v2h-1v1h-1v-2h1zM21 10h1v1h-1zM2 11h1v1h-1zM4 11h1v1h1v1h2v1h-3v-1h-1v1h-3v-1h2v-1h1zM7 11h1v1h-1zM12 11h1v1h-1zM14 11h1v1h-1zM18 11h3v1h-1v1h-1v1h2v2h-1v1h-2v2h-2v-1h1v-1h-3v2h-1v-2h-1v1h-2v2h-1v-4h1v1h1v-1h2v-1h-1v-2h1v1h3v2h3v-1h-2v-1h-1v-1h2zM21 12h1v1h-1zM9 14h2v1h-2zM1 15h7v7h-7zM14 15v1h1v-1zM2 16v5h5v-5zM3 17h3v3h-3zM21 17h1v1h-1zM12 19h1v1h-1zM14 19h1v1h-1zM19 19h1v2h-2v-1h1zM9 21h2v1h-2zM12 21h1v1h-1zM14 21h1v1h-1zM16 21h1v1h-1zM20 21h1v1h-1z"/></svg>